<?xml version="1.0" encoding="utf-8"?>
<!-- Generator: Adobe Illustrator 27.0.0, SVG Export Plug-In . SVG Version: 6.00 Build 0)  -->
<svg version="1.1" id="图层_1" xmlns="http://www.w3.org/2000/svg" xmlns:xlink="http://www.w3.org/1999/xlink" x="0px" y="0px"
	 viewBox="0 0 32 32" style="enable-background:new 0 0 32 32;" xml:space="preserve">
<style type="text/css">
	.st0{fill:#8199AF;}
	.st1{fill:#818AAF;}
	.st2{opacity:0.63;fill:#F1FFFA;}
	.st3{fill:#F6F6FA;}
</style>
<path class="st0" d="M9,0.2c-2.9,0-5.2,2.3-5.2,5.2c0,0,0,0,0,0v21.4C3.9,29.7,6.2,32,9,32c0,0,0,0,0,0h16.1c2.9,0,5.2-2.3,5.2-5.2
	l0,0v-16c0-0.5-0.2-1-0.6-1.3l-8.7-8.7c-0.4-0.4-0.9-0.6-1.4-0.6H9z"/>
<path class="st1" d="M29.8,9.5l-8.7-8.7c-0.3-0.3-0.6-0.5-1-0.5c-0.1,0-0.2,0.1-0.2,0.2c0,0,0,0,0,0v4.2c0,3.3,2.7,6,6,6h4.2
	c0.1,0,0.2-0.1,0.2-0.2c0,0,0,0,0,0C30.2,10.1,30,9.8,29.8,9.5z"/>
<path class="st2" d="M26.1,9.7H30c-0.1-0.1-0.1-0.2-0.2-0.3l-8.7-8.7c-0.1-0.1-0.2-0.1-0.3-0.2v3.9C20.8,7.4,23.2,9.7,26.1,9.7z"/>
<g>
	<path class="st3" d="M10.5,20.2v-5.8h1.1v5.8H10.5z M10.9,15.5v-1h3.5v1H10.9z M10.9,17.8v-1h3v1H10.9z M10.9,20.2v-1h3.5v1H10.9z"
		/>
	<path class="st3" d="M14.7,20.2l2.1-3.5l1.3-2.2h1.1l-1.9,3.3l-1.5,2.5H14.7z M18.1,20.2l-1.4-2.4l-0.1-0.2l-1.9-3.2h1.1l1.3,2.2
		l0.2,0.3l2,3.3H18.1z"/>
	<path class="st3" d="M20,20.2v-5.8h1.1v5.8H20z M20.4,15.5v-1h3.5v1H20.4z M20.4,17.8v-1h3v1H20.4z M20.4,20.2v-1h3.5v1H20.4z"/>
</g>
</svg>
