<?xml version="1.0" encoding="utf-8"?>
<!-- Generator: Adobe Illustrator 27.0.0, SVG Export Plug-In . SVG Version: 6.00 Build 0)  -->
<svg version="1.1" id="图层_1" xmlns="http://www.w3.org/2000/svg" xmlns:xlink="http://www.w3.org/1999/xlink" x="0px" y="0px"
	 viewBox="0 0 32 32" style="enable-background:new 0 0 32 32;" xml:space="preserve">
<style type="text/css">
	.st0{fill:#41CC8B;}
	.st1{fill:#05B25F;}
	.st2{fill:#B0F9D7;}
	.st3{fill:#F5F6FA;}
</style>
<path class="st0" d="M8.6,0.7c-2.8,0-5.1,2.3-5.1,5.1v21.1c0,2.8,2.3,5.1,5.1,5.1h15.9c2.8,0,5.1-2.3,5.1-5.1c0,0,0,0,0,0V11.2
	c0-0.5-0.2-1-0.6-1.4l-8.6-8.6c-0.4-0.4-0.9-0.6-1.4-0.6H8.6z"/>
<path class="st1" d="M29.1,9.8l-8.6-8.6c-0.3-0.3-0.6-0.5-1-0.5c-0.1,0-0.2,0.1-0.2,0.2c0,0,0,0,0,0V5c0,3.3,2.7,6,6,6l0,0h4.1
	c0.1,0,0.2-0.1,0.2-0.2c0,0,0,0,0,0C29.5,10.4,29.3,10.1,29.1,9.8z"/>
<path class="st2" d="M25.5,10.1h3.8c-0.1-0.1-0.1-0.2-0.2-0.3l-8.6-8.6c-0.1-0.1-0.2-0.1-0.3-0.2v3.8C20.3,7.7,22.6,10,25.5,10.1
	C25.5,10.1,25.5,10.1,25.5,10.1z"/>
<path class="st3" d="M14,8.6L14,8.6c1.8,0,2.7,0.9,2.7,2.7v0c0,1.8-0.9,2.7-2.7,2.7h0c-1.8,0-2.7-0.9-2.7-2.7v0
	C11.3,9.5,12.2,8.6,14,8.6z"/>
<path class="st3" d="M12.6,18.6l-4.1,5.3h16.7l-5.6-8.1l-4.3,6.1L12.6,18.6z"/>
</svg>
