<?xml version="1.0" encoding="utf-8"?>
<!-- Generator: Adobe Illustrator 27.0.0, SVG Export Plug-In . SVG Version: 6.00 Build 0)  -->
<svg version="1.1" id="图层_1" xmlns="http://www.w3.org/2000/svg" xmlns:xlink="http://www.w3.org/1999/xlink" x="0px" y="0px"
	 viewBox="0 0 32 32" style="enable-background:new 0 0 32 32;" xml:space="preserve">
<style type="text/css">
	.st0{fill:#FFA22A;}
	.st1{fill:#FF8C5F;}
	.st2{fill:#FFF9D7;}
	.st3{fill:#FFFFFF;}
</style>
<g>
	<path class="st0" d="M8.9,0.3c-2.8,0-5.1,2.4-5.1,5.2v21.4c0,2.8,2.3,5.1,5.1,5.1H25c2.8,0,5.2-2.3,5.2-5.2l0,0V10.9
		c0-0.5-0.2-1-0.5-1.4L21,0.8c-0.4-0.3-1-0.5-1.5-0.5H8.9z"/>
	<path class="st1" d="M29.6,9.6l-8.7-8.7c-0.2-0.3-0.6-0.5-1-0.6c-0.1,0-0.2,0.1-0.2,0.2l0,0v4.2c0,3.4,2.7,6.1,6.1,6.1l0,0H30
		c0.1,0,0.2-0.1,0.2-0.2l0,0C30,10.1,29.9,9.8,29.6,9.6z"/>
	<path class="st2" d="M26,9.8h3.9c-0.1-0.1-0.1-0.2-0.2-0.2L21,0.9l-0.3-0.3v3.9C20.7,7.4,23.1,9.8,26,9.8L26,9.8z"/>
	<path class="st3" d="M20.4,11.7c-0.6,0.4-1.1,0.7-1.7,1.1c-0.5,0.3-1.3,0.8-1.3,1.4c-0.1,1,1.5,1.9,0.7,3.1c-0.3,0.5-0.8,0.7-1.5,1
		c-0.1-0.1,0.2-0.3,0.3-0.4c1.1-1.4-1.1-1.9-0.8-3.6S18.5,12,20.4,11.7z"/>
	<path class="st3" d="M17.3,8.7c0.3,0.3,0.6,0.9,0.6,1.4c0,1.8-2,2.7-2.9,3.9c-0.2,0.3-0.5,0.7-0.5,1.1c0,1,1.1,2,1.4,2.8
		c-0.6-0.4-1.4-1-2-1.6c-0.6-0.7-1.2-1.7-0.6-2.6c0.8-1.4,3.1-2.2,4-3.6C17.4,9.7,17.6,9.1,17.3,8.7z"/>
	<path class="st3" d="M13.3,17.7c0.2,0,0.4-0.1,0.5-0.2c-0.2,0-0.4,0-0.5,0c-0.1,0-0.2,0-0.2,0l-0.2,0c-1,0.1-2.9,0.2-2.9,0.9
		c0,0.7,1.8,0.8,2.6,0.9c2.3,0.1,5.7-0.1,6.8-0.8c0.2-0.1,0.5-0.3,0.4-0.4c-1.7,0.3-4.2,0.5-6.2,0.4c-0.5,0-1,0-1.4-0.3
		C12.4,18,12.8,17.8,13.3,17.7z M12.8,19.7c0.1-0.1,0.1-0.1,0-0.1c-0.4,0.1-1.4,0.3-1.3,0.8c0,0.4,0.9,0.7,1.5,0.8
		c2.1,0.4,4.9,0.1,6.3-0.5c-0.2,0-0.4-0.2-0.6-0.3C18.5,20.2,18.3,20,18,20c-0.1,0-0.3,0-0.5,0.1c-0.1,0-0.2,0.1-0.3,0.1
		c-1.3,0.2-3.8,0.5-4.6-0.3C12.6,19.8,12.7,19.7,12.8,19.7z M13.4,21.5c0,0,0.1-0.1,0-0.1l-0.2,0.1c-0.6,0.1-1.1,0.3-1,1
		c1.5,1.1,5.2,0.7,6.7-0.1c-0.2,0-0.4-0.2-0.5-0.3c-0.2-0.2-0.4-0.4-0.7-0.4c-0.1,0-0.3,0-0.5,0.1c-0.1,0-0.1,0-0.2,0.1
		C16,22.1,13.8,22.3,13.4,21.5C13.4,21.6,13.4,21.6,13.4,21.5L13.4,21.5z"/>
	<path class="st3" d="M11.6,22.8c0.2,0,0.4,0,0.5,0c-0.8-0.7-3.4-0.4-3.4,0.7c0,0.6,0.8,1,1.4,1.2c2.1,0.7,5.4,0.7,8,0.4
		c1.2-0.1,4.2-0.6,4.1-1.9c-0.1-0.3-0.4-0.6-0.7-0.6c0.3,1.2-2,1.5-3.2,1.7c-2.6,0.3-5.7,0.2-7.3-0.4c-0.3-0.1-0.7-0.4-0.7-0.6
		C10.4,22.9,11.1,22.9,11.6,22.8L11.6,22.8z"/>
	<path class="st3" d="M16.1,26.5c-1.8-0.2-3.5-0.4-4.9-1c3.8,0.9,9.3,0.8,12-1c0,0,0.1-0.1,0.1-0.1c0.1-0.1,0.2-0.2,0.3-0.2
		c-0.6,1.7-2.7,2-4.7,2.2c-0.2,0-0.5,0.1-0.7,0.1C18.1,26.5,16.1,26.5,16.1,26.5z M22.8,18.9c0-1.4-1.7-1.7-2.7-0.9
		c0.8-0.2,1.4,0.2,1.6,0.7c0.2,1.1-0.8,1.8-1.5,2.4c-0.2,0.1-0.3,0.2-0.4,0.3C21.1,21.3,22.9,20.4,22.8,18.9z"/>
</g>
</svg>
